<svg width="24" height="24" viewBox="0 0 24 24" fill="none" xmlns="http://www.w3.org/2000/svg">
<path d="M19.2645 13.5159C19.4959 13.3367 19.6833 13.1069 19.8122 12.8442C19.9411 12.5814 20.0082 12.2926 20.0082 11.9999C20.0082 11.7072 19.9411 11.4183 19.8122 11.1556C19.6833 10.8928 19.4959 10.663 19.2645 10.4839C16.2667 8.16503 12.9196 6.33694 9.34847 5.06786L8.69547 4.83586C7.44747 4.39286 6.12847 5.23686 5.95947 6.52586C5.48747 10.1599 5.48747 13.8398 5.95947 17.4739C6.12947 18.7629 7.44747 19.6069 8.69547 19.1639L9.34847 18.9319C12.9196 17.6628 16.2667 15.8347 19.2645 13.5159Z" fill="#141414"/>
</svg>
