<svg width="24" height="24" viewBox="0 0 24 24" fill="none" xmlns="http://www.w3.org/2000/svg">
<circle cx="12" cy="12" r="8.75" stroke="#F5F5F5" stroke-width="2.5"/>
<mask id="path-2-inside-1_58_28576" fill="white">
<path d="M22 12C22 10.6868 21.7413 9.38642 21.2388 8.17317C20.7362 6.95991 19.9997 5.85752 19.0711 4.92893C18.1425 4.00035 17.0401 3.26375 15.8268 2.7612C14.6136 2.25866 13.3132 2 12 2L12 4.67761C12.9616 4.67761 13.9138 4.86701 14.8022 5.23499C15.6905 5.60298 16.4978 6.14234 17.1777 6.82229C17.8577 7.50224 18.397 8.30945 18.765 9.19784C19.133 10.0862 19.3224 11.0384 19.3224 12H22Z"/>
</mask>
<path d="M22 12C22 10.6868 21.7413 9.38642 21.2388 8.17317C20.7362 6.95991 19.9997 5.85752 19.0711 4.92893C18.1425 4.00035 17.0401 3.26375 15.8268 2.7612C14.6136 2.25866 13.3132 2 12 2L12 4.67761C12.9616 4.67761 13.9138 4.86701 14.8022 5.23499C15.6905 5.60298 16.4978 6.14234 17.1777 6.82229C17.8577 7.50224 18.397 8.30945 18.765 9.19784C19.133 10.0862 19.3224 11.0384 19.3224 12H22Z" stroke="#141414" stroke-width="5" mask="url(#path-2-inside-1_58_28576)"/>
</svg>
