<svg width="24" height="24" viewBox="0 0 24 24" fill="none" xmlns="http://www.w3.org/2000/svg">
<path d="M6 7.25C6 6.18934 6 5.65901 6.32951 5.32951C6.65901 5 7.18934 5 8.25 5C9.31066 5 9.84099 5 10.1705 5.32951C10.5 5.65901 10.5 6.18934 10.5 7.25V14.75C10.5 15.8106 10.5 16.341 10.1705 16.6705C9.84099 17 9.31066 17 8.25 17C7.18934 17 6.65901 17 6.32951 16.6705C6 16.341 6 15.8106 6 14.75V7.25Z" fill="#141414"/>
<path d="M13.5 7.25C13.5 6.18934 13.5 5.65901 13.8295 5.32951C14.159 5 14.6894 5 15.75 5C16.8106 5 17.341 5 17.6705 5.32951C18 5.65901 18 6.18934 18 7.25V14.75C18 15.8106 18 16.341 17.6705 16.6705C17.341 17 16.8106 17 15.75 17C14.6894 17 14.159 17 13.8295 16.6705C13.5 16.341 13.5 15.8106 13.5 14.75V7.25Z" fill="#141414"/>
</svg>
