<svg width="24" height="24" viewBox="0 0 24 24" fill="none" xmlns="http://www.w3.org/2000/svg">
<path d="M19.2664 13.5159C19.4979 13.3367 19.6853 13.1069 19.8142 12.8442C19.9431 12.5814 20.0101 12.2926 20.0101 11.9999C20.0101 11.7072 19.9431 11.4183 19.8142 11.1556C19.6853 10.8928 19.4979 10.663 19.2664 10.4839C16.2686 8.16503 12.9216 6.33694 9.35042 5.06786L8.69742 4.83586C7.44942 4.39286 6.13042 5.23686 5.96142 6.52586C5.48942 10.1599 5.48942 13.8398 5.96142 17.4739C6.13142 18.7629 7.44942 19.6069 8.69742 19.1639L9.35042 18.9319C12.9216 17.6628 16.2686 15.8347 19.2664 13.5159Z" fill="#141414"/>
</svg>
