<svg width="13" height="13" viewBox="0 0 13 13" fill="none" xmlns="http://www.w3.org/2000/svg">
<path d="M6.00879 0.845703C6.15847 0.385047 6.81029 0.385049 6.95996 0.845703L7.80469 3.44629C8.00553 4.06421 8.5817 4.48238 9.23145 4.48242H11.9658C12.4502 4.48242 12.6516 5.10202 12.2598 5.38672L10.0479 6.99414C9.52212 7.37611 9.30212 8.05384 9.50293 8.67188L10.3477 11.2725C10.4972 11.7331 9.96995 12.1157 9.57812 11.8311L7.36621 10.2236C6.84049 9.84169 6.12826 9.84169 5.60254 10.2236L3.39062 11.8311C2.9988 12.1157 2.47153 11.7331 2.62109 11.2725L3.46582 8.67188C3.66663 8.05384 3.44663 7.37611 2.9209 6.99414L0.708984 5.38672C0.317126 5.10202 0.518569 4.48242 1.00293 4.48242H3.7373C4.38705 4.48238 4.96322 4.06421 5.16406 3.44629L6.00879 0.845703Z" fill="#FF9900" stroke="white"/>
</svg>
