<svg width="16" height="16" viewBox="0 0 16 16" fill="none" xmlns="http://www.w3.org/2000/svg">
<g clip-path="url(#clip0_58_26280)">
<path d="M7.28592 12H4.71449M6 4V11.9997M6 4C6.5946 4 7.35836 4.01357 7.96646 4.07843C8.22364 4.10585 8.35226 4.11957 8.46604 4.16794C8.70283 4.26855 8.89363 4.48912 8.96546 4.74518C9 4.86829 9 5.00877 9 5.28974M6 4C5.4054 4 4.64163 4.01357 4.03355 4.07843C3.77636 4.10585 3.64776 4.11957 3.53394 4.16794C3.29719 4.26855 3.10635 4.48912 3.03453 4.74518C3 4.86829 3 5.00877 3 5.28974" stroke="#666666" stroke-linecap="round"/>
<path d="M11.3954 0.529852C13.3891 1.09089 14.5504 3.16186 13.9894 5.1555M10.7182 2.9364C11.3827 3.12341 11.7698 3.81373 11.5828 4.47828" stroke="#666666" stroke-width="1.125" stroke-linecap="round"/>
</g>
<defs>
<clipPath id="clip0_58_26280">
<rect width="16" height="16" fill="white"/>
</clipPath>
</defs>
</svg>
